<?xml version="1.0" encoding="utf-8"?>
<!-- Generator: Adobe Illustrator 26.3.1, SVG Export Plug-In . SVG Version: 6.00 Build 0)  -->
<svg version="1.1" id="Ebene_1" xmlns:svgjs="http://svgjs.com/svgjs"
	 xmlns="http://www.w3.org/2000/svg" xmlns:xlink="http://www.w3.org/1999/xlink" x="0px" y="0px" viewBox="0 0 800 800"
	 style="enable-background:new 0 0 800 800;" xml:space="preserve">
<style type="text/css">
	.st0{opacity:0.2;fill:none;stroke:#144382;stroke-width:2;stroke-miterlimit:10;}
	.st1{opacity:0.2;fill:none;stroke:#FF4900;stroke-width:2;stroke-miterlimit:10;}
</style>
<g>
	<path class="st0" d="M62.9,506.4l43.3,25v50l-43.3,25l-43.3-25v-50L62.9,506.4z M236.1,206.4l43.3,25v50l-43.3,25l-43.3-25v-50
		L236.1,206.4z M192.8,281.4l43.3,25v50l-43.3,25l-43.3-25v-50L192.8,281.4z M279.4,11.4l43.3,25v50l-43.3,25l-43.3-25v-50
		L279.4,11.4z M366,581.4l43.3,25v50l-43.3,25l-43.3-25v-50L366,581.4z M409.3,656.4l43.3,25v50l-43.3,25l-43.3-25v-50L409.3,656.4z
		 M495.9,206.4l43.3,25v50l-43.3,25l-43.3-25v-50L495.9,206.4z M452.6,431.4l43.3,25v50l-43.3,25l-43.3-25v-50L452.6,431.4z
		 M582.5,206.4l43.3,25v50l-43.3,25l-43.3-25v-50L582.5,206.4z M539.2,281.4l43.3,25v50l-43.3,25l-43.3-25v-50L539.2,281.4z
		 M625.8,11.4l43.3,25v50l-43.3,25l-43.3-25v-50L625.8,11.4z M669.1,356.4l43.3,25v50l-43.3,25l-43.3-25v-50L669.1,356.4z
		 M625.8,431.4l43.3,25v50l-43.3,25l-43.3-25v-50L625.8,431.4z M625.8,652l43.3,25v50l-43.3,25l-43.3-25v-50L625.8,652z
		 M712.4,281.4l43.3,25v50l-43.3,25l-43.3-25v-50L712.4,281.4z"/>
	<path class="st1" d="M81.5,662.5l43.3,25v50l-43.3,25l-43.3-25v-50L81.5,662.5z M211.4,137.5l43.3,25v50l-43.3,25l-43.3-25v-50
		L211.4,137.5z M254.7,212.5l43.3,25v50l-43.3,25l-43.3-25v-50L254.7,212.5z M211.4,437.5l43.3,25v50l-43.3,25l-43.3-25v-50
		L211.4,437.5z M254.7,662.5l43.3,25v50l-43.3,25l-43.3-25v-50L254.7,662.5z M341.3,62.5l43.3,25v50l-43.3,25l-43.3-25v-50
		L341.3,62.5z M298,287.5l43.3,25v50l-43.3,25l-43.3-25v-50L298,287.5z M341.3,362.5l43.3,25v50l-43.3,25l-43.3-25v-50L341.3,362.5z
		 M427.9,62.5l43.3,25v50l-43.3,25l-43.3-25v-50L427.9,62.5z M384.6,587.5l43.3,25v50l-43.3,25l-43.3-25v-50L384.6,587.5z
		 M471.2,287.5l43.3,25v50l-43.3,25l-43.3-25v-50L471.2,287.5z M514.5,662.5l43.3,25v50l-43.3,25l-43.3-25v-50L514.5,662.5z
		 M601.1,362.5l43.3,25v50l-43.3,25l-43.3-25v-50L601.1,362.5z M687.7,62.5l43.3,25v50l-43.3,25l-43.3-25v-50L687.7,62.5z
		 M731,137.5l43.3,25v50l-43.3,25l-43.3-25v-50L731,137.5z"/>
</g>
</svg>
